# xmcd
#
# Track frame offsets: 
#        150
#        11330
#        21075
#        32621
#        46235
#        55945
#        71841
#        84121
#        97906
#        110756
#        124457
#        137380
#        149719
#        161787
#        175819
#        187100
#        201562
#        210190
#        223130
#        234473
#        248813
#        261355
#        273808
#        285127
#        297896
#
# Disc length: 4189 seconds
#
# Revision: 0
# Processed by: cddbd v1.5.2PL0 Copyright (c) Steve Scherf et al.
# Submitted via: ExactAudioCopy v0.95a5
#
DISCID=71105b19
DTITLE=Various Artist - Mighty Day: 25 Gospel Greats
DYEAR=1900
DGENRE=Gospel
TTITLE0=Sister Goldia Haynes - I'm Going to Hold On
TTITLE1=Anthony Butler - My God Is a Mighty Man
TTITLE2=Rev. A. Johnson - God Don't Like It
TTITLE3=Mary Deloatch - The Lord's Gospel Train
TTITLE4=Golden Gate Quartet - Blind Barnabas
TTITLE5=Sister Ernestine Washington - I'm His Child
TTITLE6=The Wright Brothers Gospel Singers - Gospel Train
TTITLE7=Thomas A. Dorsey - If I Could Hear My Mother Pray Again
TTITLE8=Bessemer Sunset Four - Mighty Day
TTITLE9=Anthony Butler - Judgement's Coming Soon
TTITLE10=Sister O.M. Terrell - I'm Going to That City
TTITLE11=The Blue Chips - Stay on the Right Side of the Road
TTITLE12=Sister Lottie Peavey - Nobody's Fault But Mine
TTITLE13=Confed Four - Let the Church Roll On
TTITLE14=Rev. Utah Smith - Two Wings
TTITLE15=Sister Rosetta Tharpe - My Journey to the Sky
TTITLE16=Elder Charles Beck - Didn't It Rain
TTITLE17=Heavenly Gospel Singers - Lead Me to the Rock
TTITLE18=Rev. Lonnie Farris - I'm So Happy and Free the Lord Saved Me
TTITLE19=The Wright Brothers Gospel Singers - After a While
TTITLE20=Rev. Kelsey - I'm a Witness for the Lord
TTITLE21=Golden Gate Quartet - My Time Done Come
TTITLE22=Sister Goldia Haynes - The Truth in the Gospel
TTITLE23=Rev. Robert Ballinger - This Train
TTITLE24=Brother Miller and the Milleraires - J-E-S-U-S Spells Jesus
EXTD=
EXTT0=
EXTT1=
EXTT2=
EXTT3=
EXTT4=
EXTT5=
EXTT6=
EXTT7=
EXTT8=
EXTT9=
EXTT10=
EXTT11=
EXTT12=
EXTT13=
EXTT14=
EXTT15=
EXTT16=
EXTT17=
EXTT18=
EXTT19=
EXTT20=
EXTT21=
EXTT22=
EXTT23=
EXTT24=
PLAYORDER=
